# xmcd CD database file
#
# Track frame offsets:
#	150
#	10072
#	16292
#	16900
#	33587
#	39745
#	44475
#	49585
#	63952
#	85770
#	110545
#	149492
#	158002
#	158662
#	161912
#	197872
#	211407
#	250332
#
# Disc length: 3566 seconds
#
# Revision: 2
# Processed by: cddbd v1.5PL3 Copyright (c) Steve Scherf et al.
# Submitted via: CDex 1.50
#
DISCID=ef0dec12
DTITLE=Circle Of Light - The Eternally Preserved Wisdom Of Enlightenment disc 1
DYEAR=1998
DGENRE=New Age
TTITLE0=Intro: Vibrational
TTITLE1=The Four Baskets
TTITLE2=Part 1
TTITLE3=Finding The Pathway
TTITLE4=Karma
TTITLE5=Reason
TTITLE6=The Individual And Collective Self
TTITLE7=Gentleness Towards All Living Beings
TTITLE8=The Ethernal Soul
TTITLE9=Untitled
TTITLE10=Spiritual Advancement
TTITLE11=World Peace Through Collective Enlightenment
TTITLE12=Part 2
TTITLE13=Unremarkable
TTITLE14=Meditation
TTITLE15=Indescribable
TTITLE16=Spiritual Dimensions Of Eating
TTITLE17=Other Types Of Purification...
EXTD=YEAR: 1998
EXTT0=
EXTT1=
EXTT2=
EXTT3=
EXTT4=
EXTT5=
EXTT6=
EXTT7=
EXTT8=
EXTT9=
EXTT10=
EXTT11=
EXTT12=
EXTT13=
EXTT14=
EXTT15=
EXTT16=
EXTT17=
PLAYORDER=
